<svg width="14" height="24" viewBox="0 0 14 24" fill="none" xmlns="http://www.w3.org/2000/svg">
<path d="M11.2609 13.1249V3.69231C11.2609 1.6531 9.35322 0 7 0C4.64678 0 2.73913 1.6531 2.73913 3.69231V13.1249C1.07471 14.2348 0 15.9776 0 17.9341C0 21.2788 3.14026 24 7 24C10.8597 24 14 21.2788 14 17.9341C14 15.9776 12.9253 14.2348 11.2609 13.1249ZM7 20.3077C5.48964 20.3077 4.26087 19.2429 4.26087 17.9341C4.26087 16.9026 5.0243 16.0232 6.08696 15.6965V12.3956H7.91304V15.6965C8.9757 16.0231 9.73913 16.9026 9.73913 17.9341C9.73913 19.2429 8.51036 20.3077 7 20.3077Z" fill="white"/>
</svg>
